<?xml version="1.0" standalone="no"?>
<!DOCTYPE svg PUBLIC "-//W3C//DTD SVG 20010904//EN"
 "http://www.w3.org/TR/2001/REC-SVG-20010904/DTD/svg10.dtd">
<svg version="1.0" xmlns="http://www.w3.org/2000/svg"
 width="256.000000pt" height="256.000000pt" viewBox="0 0 256.000000 256.000000"
 preserveAspectRatio="xMidYMid meet">

<g transform="translate(0.000000,256.000000) scale(0.100000,-0.100000)"
fill="#000000" stroke="none">
<path d="M212 2469 c-46 -14 -109 -80 -122 -128 -7 -27 -10 -365 -8 -1083 l3
-1043 24 -38 c13 -21 42 -50 64 -65 l41 -27 750 -3 c522 -2 775 0 831 8 308
44 575 283 657 587 15 59 21 108 21 203 0 152 -21 238 -89 371 -81 157 -250
311 -404 369 l-59 22 -3 352 c-3 350 -3 351 -27 389 -13 21 -42 50 -64 65
l-41 27 -770 2 c-469 1 -784 -2 -804 -8z m1590 -107 l33 -32 3 -334 3 -333
-53 9 c-62 12 -221 4 -293 -14 l-50 -13 -210 335 c-185 295 -213 335 -235 335
-22 0 -50 -40 -232 -330 -114 -181 -208 -337 -208 -346 0 -38 13 -39 395 -39
l370 0 -42 -26 c-24 -14 -43 -28 -43 -31 0 -2 9 -17 20 -33 l20 -28 62 33
c117 62 197 80 343 79 113 0 141 -4 210 -27 116 -38 199 -91 290 -182 90 -91
135 -160 171 -265 109 -312 -5 -655 -278 -836 -224 -150 -498 -163 -743 -36
-49 26 -97 63 -161 127 -78 78 -98 104 -137 185 -117 243 -98 514 52 735 l20
29 -21 23 c-28 30 -41 29 -58 -2 l-13 -25 -229 0 -228 0 0 -40 0 -40 200 0
c110 0 200 -2 200 -4 0 -2 -7 -20 -15 -40 l-15 -36 -345 0 -345 0 0 -40 0 -40
330 0 c362 0 340 4 324 -57 l-6 -23 -324 0 -324 0 0 -40 0 -40 320 0 320 0 0
-40 0 -40 -320 0 -320 0 0 -40 0 -40 324 0 324 0 6 -22 c16 -60 21 -58 -164
-58 l-170 0 0 -40 0 -40 186 0 185 0 15 -35 c7 -19 14 -37 14 -40 0 -3 -162
-5 -360 -5 l-360 0 0 -40 0 -40 390 0 c230 0 390 -4 390 -9 0 -22 161 -179
230 -223 l75 -48 -547 2 -548 3 -32 33 -33 32 0 1049 0 1049 25 27 c14 15 34
31 45 36 11 4 361 7 777 6 l758 -2 32 -33z m-642 -412 c85 -138 157 -255 158
-260 2 -7 -110 -10 -318 -10 -208 0 -320 3 -318 10 6 18 313 509 318 509 3 0
75 -112 160 -249z"/>
<path d="M1561 1425 c-141 -31 -268 -117 -344 -232 -65 -99 -89 -170 -94 -283
-9 -170 42 -305 162 -425 168 -168 406 -212 623 -114 34 15 62 30 62 34 0 5
-13 28 -36 63 -1 2 -22 -7 -46 -19 -177 -90 -401 -54 -545 89 -95 95 -143 209
-143 342 0 127 42 229 133 326 185 198 490 203 683 10 159 -159 187 -395 69
-590 l-36 -60 26 -25 26 -26 25 30 c41 49 83 145 100 225 62 294 -136 592
-434 655 -82 18 -147 18 -231 0z"/>
<path d="M240 1280 l0 -40 120 0 120 0 0 40 0 40 -120 0 -120 0 0 -40z"/>
<path d="M1640 1202 c0 -36 -2 -38 -44 -50 -108 -29 -151 -167 -79 -253 37
-43 80 -59 163 -59 62 0 74 -3 95 -25 16 -15 25 -36 25 -55 0 -19 -9 -40 -25
-55 -23 -24 -29 -25 -160 -25 l-135 0 0 -40 0 -40 80 0 80 0 0 -40 0 -40 40 0
c40 0 40 0 40 38 0 36 2 38 44 50 108 29 151 167 79 253 -37 43 -80 59 -163
59 -62 0 -74 3 -95 25 -33 32 -33 78 0 110 23 24 29 25 160 25 l135 0 0 40 0
40 -80 0 -80 0 0 40 0 40 -40 0 c-40 0 -40 0 -40 -38z"/>
<path d="M240 640 l0 -40 120 0 120 0 0 40 0 40 -120 0 -120 0 0 -40z"/>
<path d="M960 2000 l0 -80 40 0 40 0 0 80 0 80 -40 0 -40 0 0 -80z"/>
<path d="M960 1800 l0 -40 40 0 40 0 0 40 0 40 -40 0 -40 0 0 -40z"/>
</g>
</svg>
