<?xml version="1.0" standalone="no"?>
<!DOCTYPE svg PUBLIC "-//W3C//DTD SVG 20010904//EN"
 "http://www.w3.org/TR/2001/REC-SVG-20010904/DTD/svg10.dtd">
<svg version="1.0" xmlns="http://www.w3.org/2000/svg"
 width="256.000000pt" height="256.000000pt" viewBox="0 0 256.000000 256.000000"
 preserveAspectRatio="xMidYMid meet">

<g transform="translate(0.000000,256.000000) scale(0.100000,-0.100000)"
fill="#000000" stroke="none">
<path d="M1545 2198 l-80 -62 -91 3 c-221 6 -421 -100 -517 -274 -33 -60 -56
-75 -93 -61 -12 5 -10 11 10 33 34 36 60 114 51 153 -10 45 -58 80 -109 80
-53 0 -90 -26 -107 -77 -11 -34 -8 -109 6 -145 6 -16 1 -18 -38 -18 -52 0 -78
-21 -60 -48 8 -13 27 -17 89 -18 51 0 92 -6 116 -17 21 -9 49 -17 63 -17 24 0
25 -2 19 -38 -15 -97 40 -242 129 -339 l57 -61 0 -65 c0 -57 3 -66 20 -72 38
-12 50 11 50 94 l0 76 -63 65 c-74 76 -104 134 -118 224 -19 118 23 228 123
323 104 97 222 138 382 131 l99 -5 83 64 84 64 0 -101 0 -101 53 -49 c30 -27
68 -76 85 -108 35 -65 44 -72 103 -72 l39 0 0 -99 0 -100 -52 -3 -53 -3 -29
-55 c-16 -30 -56 -81 -88 -112 l-58 -58 0 -85 0 -85 -80 0 c-73 0 -80 2 -80
20 0 11 7 20 15 20 8 0 33 7 55 16 31 13 40 21 40 40 0 35 -15 37 -104 14
-101 -26 -181 -25 -286 1 -80 20 -84 20 -96 4 -20 -26 -3 -47 53 -66 51 -17
68 -43 34 -54 -46 -14 -31 -65 20 -65 36 0 69 32 69 65 0 24 2 25 65 25 63 0
65 -1 65 -25 0 -14 9 -34 20 -45 18 -18 33 -20 130 -20 144 0 150 5 150 125 0
85 0 86 35 116 19 17 54 60 76 95 40 62 43 64 84 64 68 0 79 21 83 152 5 161
-6 188 -82 188 -42 0 -44 2 -79 58 -19 31 -54 75 -76 97 l-41 39 0 96 c0 112
-12 140 -63 140 -24 0 -52 -16 -112 -62z m-792 -219 c12 -20 -4 -66 -35 -99
-20 -22 -22 -22 -35 -4 -16 21 -17 78 -2 105 12 24 57 23 72 -2z"/>
<path d="M1327 1919 c-9 -6 -17 -21 -17 -34 0 -19 -5 -25 -21 -25 -71 0 -114
-103 -74 -180 21 -41 43 -50 118 -50 74 0 90 -12 85 -62 l-3 -33 -70 0 c-70 0
-70 0 -75 30 -4 23 -10 30 -29 30 -13 0 -28 -7 -34 -16 -23 -37 29 -119 76
-119 19 0 26 -7 31 -31 5 -26 10 -30 33 -27 22 2 29 9 31 31 2 19 9 27 23 27
57 0 94 57 86 133 -7 75 -35 98 -133 106 l-79 6 -3 35 c-4 43 16 60 73 60 49
0 72 -16 77 -50 2 -16 10 -26 24 -28 30 -4 47 22 40 62 -7 39 -32 64 -72 75
-19 5 -30 15 -32 29 -4 28 -32 43 -55 31z"/>
<path d="M1608 1839 c-21 -12 -24 -59 -6 -77 18 -18 53 -15 71 6 22 24 21 45
-1 65 -21 19 -39 21 -64 6z m47 -39 c0 -8 -8 -16 -17 -18 -13 -2 -18 3 -18 18
0 15 5 20 18 18 9 -2 17 -10 17 -18z"/>
<path d="M2043 1250 c-35 -8 -41 -13 -262 -198 l-143 -121 -36 20 c-31 16 -57
19 -174 19 -149 0 -178 6 -223 50 -16 16 -52 39 -80 52 -45 21 -64 23 -205 23
-155 0 -156 0 -220 -32 -52 -26 -95 -62 -218 -187 -139 -139 -153 -156 -142
-175 6 -12 18 -21 27 -21 9 0 89 71 177 159 117 115 172 162 201 172 43 15
289 20 337 7 14 -5 50 -28 78 -52 66 -56 106 -66 269 -66 118 0 133 -2 151
-20 23 -23 26 -68 6 -96 -13 -18 -32 -19 -282 -24 -231 -4 -268 -7 -277 -21
-6 -9 -7 -24 -4 -33 6 -14 35 -16 274 -16 241 0 272 2 302 18 41 22 71 74 71
123 0 34 8 43 180 188 99 83 192 156 206 161 34 13 74 -6 92 -42 10 -22 10
-33 -2 -60 -18 -42 -581 -603 -619 -617 -18 -7 -144 -11 -338 -11 -345 0 -347
0 -418 -68 -37 -35 -41 -43 -31 -61 15 -28 41 -26 71 5 50 53 54 54 391 54
293 0 316 2 358 21 33 15 123 98 336 312 160 161 299 304 308 319 23 36 23
110 -1 150 -31 54 -99 82 -160 68z"/>
</g>
</svg>
