<?xml version="1.0" standalone="no"?>
<!DOCTYPE svg PUBLIC "-//W3C//DTD SVG 20010904//EN"
 "http://www.w3.org/TR/2001/REC-SVG-20010904/DTD/svg10.dtd">
<svg version="1.0" xmlns="http://www.w3.org/2000/svg"
 width="256.000000pt" height="256.000000pt" viewBox="0 0 256.000000 256.000000"
 preserveAspectRatio="xMidYMid meet">

<g transform="translate(0.000000,256.000000) scale(0.100000,-0.100000)"
fill="#000000" stroke="none">
<path d="M1070 2434 c-359 -65 -677 -306 -843 -639 -184 -371 -151 -831 86
-1180 53 -78 185 -214 267 -276 81 -61 230 -138 335 -173 226 -75 505 -75 730
0 172 57 312 142 443 268 170 163 271 337 332 571 30 113 38 347 17 470 -85
487 -472 876 -955 960 -104 18 -310 18 -412 -1z m320 -94 c124 -14 229 -44
335 -94 122 -58 203 -113 297 -204 325 -315 415 -802 224 -1208 -73 -154 -206
-331 -206 -274 0 27 -47 128 -90 193 -96 148 -246 267 -403 321 -16 5 -10 13
32 46 135 107 202 282 173 451 -40 234 -235 399 -472 399 -449 0 -650 -564
-301 -848 50 -41 52 -44 30 -49 -47 -12 -170 -82 -233 -132 -106 -85 -214
-238 -247 -348 -7 -24 -15 -43 -20 -43 -25 0 -138 163 -195 284 -193 408 -101
896 227 1212 230 220 544 329 849 294z m-38 -481 c168 -36 286 -171 296 -338
10 -180 -90 -329 -257 -381 -80 -25 -142 -25 -222 0 -264 82 -347 420 -152
615 52 52 106 83 178 101 65 16 92 16 157 3z m88 -865 c232 -54 438 -248 504
-473 19 -64 18 -65 -67 -123 -139 -94 -309 -156 -492 -178 -229 -28 -500 41
-705 180 -81 55 -83 57 -64 121 66 224 258 409 488 469 89 24 246 26 336 4z"/>
</g>
</svg>
