<?xml version="1.0" standalone="no"?>
<!DOCTYPE svg PUBLIC "-//W3C//DTD SVG 20010904//EN"
 "http://www.w3.org/TR/2001/REC-SVG-20010904/DTD/svg10.dtd">
<svg version="1.0" xmlns="http://www.w3.org/2000/svg"
 width="256.000000pt" height="256.000000pt" viewBox="0 0 256.000000 256.000000"
 preserveAspectRatio="xMidYMid meet">

<g transform="translate(0.000000,256.000000) scale(0.100000,-0.100000)"
fill="#000000" stroke="none">
<path d="M2052 2524 c-9 -6 -13 -18 -9 -28 6 -15 27 -20 75 -16 12 1 22 0 22
-2 0 -2 -135 -139 -301 -304 -302 -302 -326 -333 -275 -342 14 -3 103 80 322
299 l304 304 0 -48 c0 -51 18 -70 45 -47 17 14 22 154 6 178 -10 17 -167 22
-189 6z"/>
<path d="M2005 2148 c-3 -7 -6 -58 -7 -113 l-3 -100 -90 -5 -90 -5 -3 -287 -2
-287 -34 -6 c-18 -4 -46 -5 -62 -3 l-29 3 -3 100 c-2 64 -7 102 -15 107 -7 5
-48 8 -92 7 l-80 -2 3 75 c1 42 -2 88 -8 102 l-10 27 -112 -3 -113 -3 -5 -205
-5 -205 -80 -3 c-44 -2 -86 -5 -92 -7 -9 -3 -13 -34 -13 -108 l0 -104 -59 -6
c-88 -10 -139 -32 -379 -171 l-219 -126 -39 16 c-21 9 -65 17 -96 17 -47 0
-70 -6 -125 -35 -38 -20 -69 -42 -71 -50 -2 -11 339 -616 404 -715 20 -32 42
-29 111 16 69 45 98 85 116 166 l13 59 88 45 c126 64 185 66 417 15 194 -43
279 -47 372 -20 89 26 808 294 834 311 83 54 79 175 -7 233 -31 21 -44 23
-102 19 l-68 -4 0 621 c0 471 -3 625 -12 634 -17 17 -227 17 -233 0z m-5 -803
l0 -524 -37 -10 c-21 -5 -50 -13 -65 -17 l-28 -6 0 541 0 541 65 0 65 0 0
-525z m-380 -114 c0 -211 -3 -271 -12 -270 -7 0 -35 8 -62 17 l-49 17 1 225
c0 124 1 237 1 251 1 24 4 26 61 28 l60 2 0 -270z m-370 -53 c0 -91 -2 -100
-17 -95 -10 3 -39 11 -65 18 l-48 13 0 83 0 82 58 3 c31 2 60 2 65 0 4 -2 7
-48 7 -104z m149 -215 c245 -79 310 -103 333 -126 62 -62 15 -177 -72 -177
-12 0 -131 29 -266 65 -134 37 -249 63 -254 60 -13 -8 -13 -42 -1 -50 20 -12
494 -135 522 -135 43 0 91 23 121 58 14 17 28 36 30 42 4 14 482 140 531 140
92 0 117 -114 33 -154 -91 -43 -782 -290 -847 -303 l-75 -15 -198 41 c-276 57
-349 54 -495 -25 -35 -19 -64 -34 -65 -32 -2 2 -51 89 -111 193 -60 105 -114
199 -122 211 -13 20 -5 26 199 144 117 68 238 131 268 141 105 34 137 29 469
-78z"/>
</g>
</svg>
