<?xml version="1.0" standalone="no"?>
<!DOCTYPE svg PUBLIC "-//W3C//DTD SVG 20010904//EN"
 "http://www.w3.org/TR/2001/REC-SVG-20010904/DTD/svg10.dtd">
<svg version="1.0" xmlns="http://www.w3.org/2000/svg"
 width="256.000000pt" height="256.000000pt" viewBox="0 0 256.000000 256.000000"
 preserveAspectRatio="xMidYMid meet">

<g transform="translate(0.000000,256.000000) scale(0.100000,-0.100000)"
fill="#000000" stroke="none">
<path d="M1155 2080 c-311 -48 -577 -290 -654 -595 -11 -44 -23 -101 -26 -127
l-6 -48 -68 0 c-112 0 -111 -5 34 -181 70 -85 132 -155 138 -157 21 -5 269
302 261 323 -5 11 -24 15 -80 15 -65 0 -74 2 -74 18 0 42 42 177 72 235 44 82
165 203 245 245 118 62 280 87 392 61 49 -11 46 -12 55 17 8 27 -9 33 -129 40
-314 20 -607 -205 -671 -515 -8 -41 -14 -91 -12 -110 l3 -36 58 -3 c31 -2 57
-5 57 -8 0 -7 -169 -214 -174 -214 -5 0 -176 209 -176 214 0 3 26 6 58 8 55 3
57 4 60 33 8 89 33 198 57 260 152 382 574 575 960 438 85 -30 134 -58 220
-124 54 -41 69 -48 81 -39 8 7 14 16 14 21 0 16 -145 121 -214 154 -144 69
-330 98 -481 75z"/>
<path d="M1541 1847 c-7 -18 -4 -25 23 -39 29 -15 32 -16 44 0 18 23 16 26
-23 45 -35 17 -36 17 -44 -6z"/>
<path d="M1259 1623 c-1 -4 -2 -21 -3 -38 -1 -26 -5 -30 -38 -36 -103 -16
-157 -120 -112 -215 29 -61 79 -78 237 -83 73 -2 103 -106 48 -162 -28 -27
-34 -29 -111 -29 -77 0 -83 2 -111 29 -16 16 -29 37 -29 45 0 11 -9 16 -26 16
-24 0 -26 -2 -20 -32 11 -54 61 -97 126 -108 32 -5 35 -8 35 -40 0 -31 3 -35
25 -35 22 0 25 5 26 35 0 32 3 35 36 41 103 16 157 120 112 215 -25 52 -74 77
-158 80 -39 1 -78 3 -87 3 -9 1 -28 13 -43 27 -38 38 -36 95 3 135 28 27 34
29 111 29 77 0 83 -2 111 -29 16 -16 29 -37 29 -45 0 -10 9 -16 25 -16 31 0
33 22 5 67 -24 40 -61 65 -108 72 -34 6 -37 9 -37 41 0 29 -4 36 -22 38 -13 2
-24 0 -24 -5z"/>
<path d="M1878 1478 c-154 -185 -163 -197 -152 -208 6 -6 41 -12 79 -14 41 -2
71 -8 73 -15 8 -24 -31 -164 -65 -234 -46 -91 -160 -208 -250 -255 -126 -66
-281 -88 -412 -57 -35 9 -65 14 -66 13 -1 -2 -5 -13 -9 -24 -6 -19 -1 -23 41
-34 81 -21 210 -24 293 -6 189 40 365 175 449 346 42 85 71 192 71 263 0 32
-4 39 -27 48 -16 6 -43 9 -60 7 -18 -2 -33 -1 -33 2 0 12 168 212 176 209 10
-4 174 -201 174 -209 0 -3 -22 -5 -50 -4 -27 0 -53 -2 -58 -5 -4 -3 -13 -50
-20 -103 -44 -355 -308 -622 -662 -670 -203 -27 -414 37 -588 180 -35 28 -45
32 -57 22 -8 -7 -15 -16 -15 -21 0 -16 145 -121 214 -154 123 -59 214 -79 356
-79 99 0 141 5 205 23 319 90 550 348 594 666 6 43 13 80 15 82 1 2 34 5 71 8
78 5 96 16 73 42 -8 10 -66 80 -127 156 -62 75 -119 137 -126 137 -8 0 -56
-51 -107 -112z"/>
<path d="M933 760 c-11 -16 -9 -21 9 -35 29 -20 44 -19 52 2 5 11 -1 23 -16
35 -29 22 -31 22 -45 -2z"/>
</g>
</svg>
